<svg width="150" height="26" viewBox="0 0 150 26" fill="none" xmlns="http://www.w3.org/2000/svg">
<path d="M23.5169 13.2091C24.0533 13.001 24.051 12.2047 23.5142 11.9977C17.7639 9.78085 15.3828 6.9841 13.199 1.56177C12.9888 1.03983 12.2244 1.04487 12.0188 1.56866C9.81975 7.17199 7.28174 9.81869 1.68307 11.9909C1.14671 12.199 1.14903 12.9954 1.68584 13.2023C7.43612 15.4192 9.81722 18.2159 12.001 23.6382C12.2112 24.1602 12.9756 24.1551 13.1812 23.6313C15.3803 18.028 17.9183 15.3813 23.5169 13.2091Z" fill="#443BED"/>
<path d="M23.5169 13.2091C24.0533 13.001 24.051 12.2047 23.5142 11.9977C17.7639 9.78085 15.3828 6.9841 13.199 1.56177C12.9888 1.03983 12.2244 1.04487 12.0188 1.56866C9.81975 7.17199 7.28174 9.81869 1.68307 11.9909C1.14671 12.199 1.14903 12.9954 1.68584 13.2023C7.43612 15.4192 9.81722 18.2159 12.001 23.6382C12.2112 24.1602 12.9756 24.1551 13.1812 23.6313C15.3803 18.028 17.9183 15.3813 23.5169 13.2091Z" fill="url(#paint0_linear_25_1978)"/>
<path d="M43.3112 15.2368V14.5888C43.3112 12.3424 41.8424 11.0464 39.9848 11.0464C37.9976 11.0464 36.8528 12.5368 36.8528 14.9128C36.8528 17.2888 37.9976 18.7792 39.9848 18.7792C41.8424 18.7792 43.3112 17.4832 43.3112 15.2368ZM43.268 19.6V17.548C42.8576 18.736 41.6264 19.8592 39.812 19.8592C37.0256 19.8592 35.4704 17.6776 35.4704 14.9128C35.4704 12.148 37.0256 9.9664 39.812 9.9664C41.6264 9.9664 42.8576 11.1112 43.268 12.2992V5.992H44.5856V19.6H43.268ZM54.4718 16.252L55.595 16.4032C55.1414 18.5416 53.5862 19.8592 51.2966 19.8592C48.575 19.8592 46.5446 17.9368 46.5446 15.0424C46.5446 12.0832 48.5534 9.9664 51.2102 9.9664C54.1478 9.9664 55.6166 12.0832 55.6166 14.632V15.2368H47.9054C47.9918 17.3104 49.439 18.7792 51.2966 18.7792C53.0246 18.7792 54.083 17.9152 54.4718 16.252ZM47.927 14.308H54.2126C54.1694 12.58 53.1974 11.0032 51.2102 11.0032C49.3526 11.0032 48.143 12.5584 47.927 14.308ZM57.0272 16.4248L58.0856 16.2952C58.28 17.9152 59.3816 18.8224 61.1744 18.8224C62.6216 18.8224 63.6368 18.2824 63.6368 17.1808C63.6368 16.144 62.9024 15.82 61.5848 15.5824L59.9648 15.3016C58.3232 15.0208 57.308 14.2648 57.308 12.7528C57.308 11.068 58.712 9.9664 60.764 9.9664C63.1832 9.9664 64.5872 11.1112 64.7384 13.336L63.7232 13.4224C63.4856 11.7376 62.492 11.0032 60.764 11.0032C59.4248 11.0032 58.5392 11.608 58.5392 12.6016C58.5392 13.5088 59.0792 13.9624 60.2456 14.1568L61.9736 14.4376C63.8096 14.74 64.8896 15.388 64.8896 17.0512C64.8896 18.8872 63.248 19.8592 61.196 19.8592C58.928 19.8592 57.1784 18.736 57.0272 16.4248ZM66.8726 10.2256H68.1902V19.6H66.8726V10.2256ZM66.8294 7.7416V5.992H68.2334V7.7416H66.8294ZM78.2053 13.1416C78.2053 15.1072 76.6069 16.3168 74.4037 16.3168C73.6261 16.3168 72.9349 16.1872 72.3517 15.9064C71.9629 16.1008 71.5741 16.4896 71.5741 16.9864C71.5741 17.5696 71.8981 17.872 72.8053 17.872H76.4341C78.4429 17.872 79.5013 18.9088 79.5013 20.356C79.5013 22.6672 76.9741 23.5312 74.2309 23.5312C71.7469 23.5312 69.6949 22.6672 69.6949 20.9392C69.6949 19.7944 70.4941 19.0816 71.6821 18.8224C70.8181 18.5632 70.4725 17.98 70.4725 17.2888C70.4725 16.4896 71.0341 15.9496 71.7901 15.5608C71.0557 15.0208 70.6237 14.1784 70.6237 13.1416C70.6237 11.176 72.2005 9.9664 74.4037 9.9664C75.6133 9.9664 76.6501 10.3336 77.3197 11.0032C77.8165 10.2472 78.6373 9.7288 79.6309 9.7288V11.0032C78.9181 11.0032 78.1621 11.1976 77.7085 11.4568C78.0325 11.932 78.2053 12.4936 78.2053 13.1416ZM71.0341 20.6152C71.0341 21.9976 72.3517 22.5808 74.2309 22.5808C76.5637 22.5808 78.2269 22.0192 78.2269 20.3992C78.2269 19.4056 77.3845 19.0384 76.1317 19.0384H73.1725C72.0277 19.0384 71.0341 19.4056 71.0341 20.6152ZM76.8661 13.1632C76.8661 11.716 75.9589 10.8736 74.4037 10.8736C72.8917 10.8736 71.9845 11.716 71.9845 13.1632C71.9845 14.5888 72.8917 15.4312 74.4037 15.4312C75.9589 15.4312 76.8661 14.5888 76.8661 13.1632ZM82.2386 13.984V19.6H80.921V10.2256H82.2386V11.9536C82.6922 10.8088 83.9882 9.9664 85.3922 9.9664C87.8114 9.9664 88.8266 11.5432 88.8266 13.7896V19.6H87.509V13.7464C87.509 12.0832 86.645 11.0032 85.0466 11.0032C83.5562 11.0032 82.2386 12.1696 82.2386 13.984ZM93.7178 14.5024V19.6H91.1258V5.992H93.7178V11.6296C94.193 10.5496 95.4026 9.8152 96.8282 9.8152C99.377 9.8152 100.306 11.5432 100.306 13.66V19.6H97.7138V14.1784C97.7138 12.7096 97.1306 11.8672 95.8562 11.8672C94.5386 11.8672 93.7178 12.904 93.7178 14.5024ZM108.74 15.172V10.0744H111.332V19.6H108.74V18.0448C108.243 19.1464 107.12 19.8592 105.673 19.8592C103.146 19.8592 102.282 18.1528 102.282 16.036V10.0744H104.874V15.5176C104.874 16.9648 105.414 17.8288 106.688 17.8288C107.963 17.8288 108.74 16.792 108.74 15.172ZM116.119 14.5024V19.6H113.527V10.0744H116.119V11.6296C116.595 10.5496 117.804 9.8152 119.23 9.8152C121.779 9.8152 122.707 11.5432 122.707 13.66V19.6H120.115V14.1784C120.115 12.7096 119.532 11.8672 118.258 11.8672C116.94 11.8672 116.119 12.904 116.119 14.5024ZM125.115 17.1808V11.8888H123.755V10.3552L124.403 10.2472C125.331 10.096 125.591 9.6208 125.807 8.7352L126.109 7.4392H127.686V10.0744H130.278V11.8888H127.686V16.5976C127.686 17.4184 128.053 17.7856 128.831 17.7856C129.349 17.7856 129.889 17.5912 130.451 17.332V19.0384C129.759 19.5568 128.982 19.8592 127.815 19.8592C126.347 19.8592 125.115 19.2112 125.115 17.1808ZM138.856 16.2736L140.951 16.4896C140.454 18.6064 138.813 19.8592 136.372 19.8592C133.434 19.8592 131.317 17.98 131.317 14.9776C131.317 11.9752 133.456 9.8152 136.307 9.8152C139.417 9.8152 141.016 11.9752 141.016 14.5672V15.496H133.866C133.953 16.9 135.054 17.8936 136.458 17.8936C137.733 17.8936 138.489 17.3536 138.856 16.2736ZM133.909 13.876H138.489C138.402 12.7744 137.733 11.716 136.285 11.716C134.86 11.716 134.147 12.688 133.909 13.876ZM149.267 10.204L149.073 12.6232C148.576 12.3424 148.144 12.2128 147.517 12.2128C146.178 12.2128 145.271 13.1632 145.271 14.8912V19.6H142.679V10.0744H145.271V11.8888C145.617 10.8088 146.61 9.8152 147.928 9.8152C148.511 9.8152 148.986 9.9664 149.267 10.204Z" fill="black"/>
<defs>
<linearGradient id="paint0_linear_25_1978" x1="12.6" y1="0" x2="12.6" y2="25.2" gradientUnits="userSpaceOnUse">
<stop stop-color="#7E7E7E"/>
<stop offset="1"/>
</linearGradient>
</defs>
</svg>
